<?xml version="1.0" encoding="UTF-8" standalone="no"?>
<!-- Created with Inkscape (http://www.inkscape.org/) -->

<svg
   width="117.91195mm"
   height="160.2579mm"
   viewBox="0 0 117.91195 160.2579"
   version="1.1"
   id="svg1"
   inkscape:export-filename="test.svg"
   inkscape:export-xdpi="96"
   inkscape:export-ydpi="96"
   sodipodi:docname="web-saggy.svg"
   inkscape:version="1.3 (0e150ed, 2023-07-21)"
   xmlns:inkscape="http://www.inkscape.org/namespaces/inkscape"
   xmlns:sodipodi="http://sodipodi.sourceforge.net/DTD/sodipodi-0.dtd"
   xmlns="http://www.w3.org/2000/svg"
   xmlns:svg="http://www.w3.org/2000/svg">
  <sodipodi:namedview
     id="namedview1"
     pagecolor="#ffffff"
     bordercolor="#000000"
     borderopacity="0.25"
     inkscape:showpageshadow="2"
     inkscape:pageopacity="0.0"
     inkscape:pagecheckerboard="0"
     inkscape:deskcolor="#d1d1d1"
     inkscape:document-units="mm"
     inkscape:zoom="3.2244069"
     inkscape:cx="212.7523"
     inkscape:cy="445.04308"
     inkscape:window-width="1728"
     inkscape:window-height="1051"
     inkscape:window-x="747"
     inkscape:window-y="132"
     inkscape:window-maximized="0"
     inkscape:current-layer="layer1" />
  <defs
     id="defs1" />
  <g
     inkscape:label="Layer 1"
     inkscape:groupmode="layer"
     id="layer1"
     transform="translate(-8.1749362,-5.9813306)">
    <path
       style="display:inline;fill:none;stroke:#000000;stroke-width:0.264583;stroke-opacity:1"
       d="m 59.727394,59.579927 c 0,0 2.20222,0.94381 1.80896,4.32579 -0.39325,3.38197 -1.41571,15.41552 -3.61793,19.89861 -2.20221,4.48309 -8.41561,11.48299 -8.10101,19.426713 0.3146,7.94371 4.64039,14.55037 13.99981,15.10092 9.359426,0.55056 13.606556,-4.01118 13.842516,-8.96617"
       id="path1"
       inkscape:label="old-nose" />
    <path
       style="display:inline;fill:none;stroke:#000000;stroke-width:0.264583;stroke-opacity:1"
       d="m 115.1761,68.782057 c 0,0 4.87634,-6.84261 8.25832,-3.61794 3.38197,3.22468 2.51682,9.51673 2.12356,11.483 -0.39325,1.96627 -1.57301,6.60665 -1.88761,8.49427 -0.3146,1.88762 -5.03364,10.93244 -5.82015,13.37061 -0.78651,2.438173 -3.53928,13.291963 -3.93253,15.887433 -0.39325,2.59547 -1.17976,12.74141 -2.83143,12.97736 -1.65166,0.23595 -2.20221,-2.28087 -1.88761,-3.53928"
       id="path2"
       inkscape:label="old-ear-r" />
    <path
       style="display:inline;fill:none;stroke:#000000;stroke-width:0.264583;stroke-opacity:1"
       d="m 22.127684,65.491737 c 0,0 0.29233,6.43117 -0.58465,11.8392 -0.87698,5.40803 -0.14617,15.0548 0,18.41654 0.14616,3.36175 2.77709,20.901323 3.9464,24.263073 1.1693,3.36175 7.45431,18.12421 8.03896,22.80143 0.58466,4.67721 5.70036,21.48597 14.17782,22.94759 8.47745,1.46163 11.8392,-2.19244 15.34711,-1.60779"
       id="path3"
       inkscape:label="old-menton-l" />
    <path
       style="display:inline;fill:none;stroke:#000000;stroke-width:0.264583"
       d="m 21.111004,65.346007 c 0,0 -2.04628,-3.58099 -5.11571,-1.53471 -3.06942,2.04628 -4.31181,7.08891 -2.77709,11.40072 1.53471,4.3118 3.80023,7.38123 4.45797,18.85503 0.65773,11.473793 0.6383,19.914203 1.09622,22.509103 0.43849,2.48477 0.88547,7.38123 3.66256,7.60048 2.5164,0.19866 3.10597,-3.25213 2.7771,-5.11571"
       id="path4"
       sodipodi:nodetypes="csssssc"
       inkscape:label="old-ear-l" />
    <path
       style="display:inline;fill:none;stroke:#000000;stroke-width:0.264583"
       d="m 51.467094,148.30155 c 0,0 1.75229,3.55655 3.94613,5.33449 2.19384,1.77793 4.4781,3.56383 7.52718,4.09245 2.58335,0.44788 6.051226,0.61365 8.768706,0.29231 2.71748,-0.32135 4.29187,-0.91082 6.65023,-2.70391 2.35836,-1.79309 4.38466,-6.64995 4.38466,-6.64995"
       id="path6-6"
       sodipodi:nodetypes="czszzc"
       inkscape:label="old-menton" />
    <path
       style="display:inline;fill:none;fill-opacity:1;stroke:#000000;stroke-width:0.264583;stroke-opacity:1"
       d="m 75.36194,160.71806 c 0,0 4.20322,2.47535 8.8267,2.55509 4.42332,0.0763 9.49124,-0.87276 12.48514,-4.93598 2.20703,-2.9953 3.51741,-5.13583 4.87792,-8.53635 1.26272,-3.15613 2.61317,-7.60723 3.07773,-10.56882 0.56257,-3.58636 2.43896,-7.89758 3.48422,-11.26566 1.04527,-3.36808 3.5423,-14.5176 3.71651,-21.36991 0.17421,-6.852313 -0.17421,-11.846373 0.58071,-16.143583 0.75491,-4.29721 2.53389,-8.41758 2.38088,-14.22725 -0.12089,-4.59017 0.23228,-6.91038 0.46457,-8.47828"
       id="path10"
       sodipodi:nodetypes="cssssssssc"
       inkscape:label="old-jawline-r" />
    <path
       style="display:inline;fill:none;fill-opacity:1;stroke:#000000;stroke-width:0.264583;stroke-opacity:1"
       d="m 33.052794,62.090477 c 0,0 8.13429,-8.134286 17.19821,-5.810206"
       id="path16"
       inkscape:label="old-eyebrow-l" />
    <path
       style="display:inline;fill:none;fill-opacity:1;stroke:#000000;stroke-width:0.264583;stroke-opacity:1"
       d="m 105.79658,63.949747 c 0,0 -6.97224,-8.134286 -19.28988,-6.739836"
       id="path17"
       inkscape:label="old-eyebrow-r" />
    <circle
       style="display:inline;fill:#000000;fill-opacity:1;stroke:none;stroke-width:0.132292"
       id="path7"
       cx="44.579422"
       cy="67.900642"
       r="0.52258509"
       inkscape:label="eye-l" />
    <circle
       style="display:inline;fill:#000000;fill-opacity:1;stroke:none;stroke-width:0.132292"
       id="path7-2"
       cx="92.383591"
       cy="67.208733"
       r="0.52258509"
       inkscape:label="eye-r" />
    <path
       style="display:inline;fill:none;stroke:#000000;stroke-width:0.264583;stroke-opacity:1"
       d="m 63.232995,58.517728 c 0,0 -0.0347,2.589599 -0.27386,4.727739 -0.24032,2.14871 -0.79304,12.92735 -1.24278,17.7427 -0.46415,4.96963 -1.25387,10.31108 -2.11977,18.236 -0.43104,3.944953 -1.13346,8.699563 -0.64093,9.393533 0.49253,0.69396 5.32579,0.30094 10.267295,0.43039 1.75868,0.0461 4.46511,0.0991 8.79363,0.004"
       id="path1-5"
       sodipodi:nodetypes="cssszcc"
       inkscape:label="young-nose" />
    <path
       style="display:inline;fill:none;stroke:#000000;stroke-width:0.264583;stroke-opacity:1"
       d="m 113.50579,68.812307 c 0,0 1.95051,-5.36537 5.84663,-3.17944 1.80475,1.01255 1.34752,3.3048 0.95427,5.27106 -0.39325,1.96627 -1.1711,6.74709 -1.44912,8.64043 -0.35581,2.42304 -0.5665,3.45371 -0.72274,4.30851 -0.49863,2.72844 -1.03248,4.29492 -1.30159,5.08963 -0.42434,1.25321 -0.88466,1.78145 -2.00927,1.96032 -1.63401,0.2599 -2.43972,-0.10669 -2.54535,-0.50639"
       id="path2-0"
       sodipodi:nodetypes="cssssssc"
       inkscape:label="young-ear-r" />
    <path
       style="display:inline;fill:none;stroke:#000000;stroke-width:0.264583;stroke-opacity:1"
       d="m 22.068662,65.318457 c 0,0 0.0856,6.22445 0.448987,12.04594 0.341323,5.46803 0.887476,14.84806 1.033637,18.20981 0.146164,3.36175 0.463508,18.766583 1.632813,22.128333 1.169304,3.36175 4.718804,6.05812 7.744269,9.18233 3.189454,3.29355 6.978369,6.12235 11.12928,9.09957 3.043272,2.18277 7.358253,6.06227 11.960688,9.13664"
       id="path3-8"
       sodipodi:nodetypes="csssssc"
       inkscape:label="young-jawline-l" />
    <path
       style="display:inline;fill:none;stroke:#000000;stroke-width:0.264583"
       d="m 22.110847,66.956637 c 0,0 -2.301023,-4.96746 -6.034871,-1.99429 -1.443043,1.14906 -1.345853,3.8031 -1.149519,6.55414 0.319291,4.47392 0.317492,5.51545 0.61786,8.0216 0.386099,3.22143 0.769377,6.24467 1.205661,9.40099 0.420836,3.04459 2.166329,4.30696 4.000601,4.34615 1.405236,0.03 2.455399,-0.5024 2.565945,-2.07296"
       id="path4-7"
       sodipodi:nodetypes="csssssc"
       inkscape:label="young-ear-l" />
    <path
       style="display:inline;fill:none;fill-opacity:1;stroke:#000000;stroke-width:0.264583;stroke-opacity:1"
       d="m 81.1646,144.99434 c 0,0 2.83422,-2.44161 4.01364,-3.35066 2.27257,-1.75161 4.95607,-3.58956 6.55833,-5.1082 1.56836,-1.48651 2.92428,-2.35627 5.43894,-5.01917 2.51511,-2.66338 3.94632,-3.89657 5.93006,-6.31658 1.82305,-2.22397 4.76904,-5.31884 6.42146,-8.29017 1.6295,-2.93011 1.88143,-6.31482 2.23844,-13.28095 0.33445,-6.526283 0.35956,-10.778763 0.49858,-15.363403 0.13223,-4.36101 0.36068,-7.91338 0.57414,-13.69345 0.17068,-4.62059 0.51972,-7.77268 0.42352,-9.58695"
       id="path10-4"
       sodipodi:nodetypes="cssssssssc"
       inkscape:label="young-jawline-r" />
    <path
       style="display:inline;fill:none;fill-opacity:1;stroke:#000000;stroke-width:0.264583;stroke-opacity:1"
       d="M 37.858328,57.563878 H 56.915805"
       id="path14"
       inkscape:label="young-eyebrow-l" />
    <path
       style="display:inline;fill:none;fill-opacity:1;stroke:#000000;stroke-width:0.264583;stroke-opacity:1"
       d="m 79.69182,57.099068 19.864519,-0.04532"
       id="path15"
       inkscape:label="young-eyebrow-r"
       sodipodi:nodetypes="cc" />
    <path
       style="display:inline;fill:none;stroke:#000000;stroke-width:0.264583"
       d="m 49.660577,68.361497 c 0,0 0.246507,6.90217 -8.627721,9.03856"
       id="path5"
       inkscape:label="old-eyebag-l" />
    <path
       style="display:inline;fill:none;stroke:#000000;stroke-width:0.264583"
       d="m 85.0753,67.786317 c 0,0 0.32868,6.65566 14.05085,11.50362"
       id="path18"
       inkscape:label="old-eyebag-r" />
    <path
       style="display:inline;fill:none;fill-opacity:1;stroke:#000000;stroke-width:0.264583;stroke-opacity:1"
       d="m 56.431191,123.30436 c 0,0 6.995269,-2.70923 8.073078,-2.6294 1.109272,0.0822 1.919492,1.60367 3.081322,1.58175 1.088739,-0.0205 1.992599,-1.58175 2.896449,-1.58175 0.90386,0 8.9564,2.87591 8.9564,2.87591 z"
       id="path11"
       sodipodi:nodetypes="cssscc"
       inkscape:label="old-lip-upper" />
    <path
       style="display:inline;fill:none;stroke:#000000;stroke-width:0.264583"
       d="m 56.948015,123.31609 c 0,0 3.290398,2.4467 11.136736,2.19359 7.846329,-0.2531 11.136729,-2.02485 11.136729,-2.02485"
       id="path23"
       inkscape:label="old-lip-down" />
    <path
       style="display:inline;fill:none;fill-opacity:1;stroke:#000000;stroke-width:0.264583;stroke-opacity:1"
       d="m 54.80038,123.27969 c 0,0 4.84878,-2.59817 7.443575,-2.82482 2.864834,-0.25025 4.298598,2.1605 4.951888,2.1605 0.65329,0 2.849887,-2.10625 5.750887,-2.1288 3.05927,-0.0238 8.711616,3.0298 8.711616,3.0298 z"
       id="path8"
       sodipodi:nodetypes="cssscc"
       inkscape:label="young-lip-up" />
    <path
       style="display:inline;fill:none;fill-opacity:1;stroke:#000000;stroke-width:0.264583;stroke-opacity:1"
       d="m 54.936746,123.36647 c 0,0 2.753296,7.87564 12.095377,7.87564 9.342077,0 13.857957,-5.22633 14.445917,-7.70884"
       id="path9"
       sodipodi:nodetypes="csc"
       inkscape:label="young-lip-down" />
    <path
       style="display:inline;fill:none;fill-opacity:1;stroke:#000000;stroke-width:0.264583;stroke-opacity:1"
       d="m 61.895852,25.632306 c 0,0 -9.86025,-14.133023 -20.04917,-7.230849 -10.18892,6.902173 -11.8323,13.146998 -9.2029,24.650621 2.6294,11.503625 5.91615,21.363869 -8.87422,23.007249"
       id="path13"
       inkscape:label="hair-bottom-left" />
    <path
       style="display:inline;fill:none;stroke:#000000;stroke-width:0.264583"
       d="m 60.157102,12.472799 c 0,0 -24.63528,-9.9935573 -41.13626,10.923189 -16.500995,20.916745 -9.972812,35.774353 -6.27503,39.741819 3.56287,3.82272 10.69078,3.25372 10.69078,3.25372"
       id="path20"
       sodipodi:nodetypes="cssc"
       inkscape:label="hair-top-left" />
    <path
       style="display:inline;fill:none;stroke:#000000;stroke-width:0.264583"
       d="m 62.248772,25.255253 c 0,0 14.837668,-19.7936863 29.051048,-5.345389 6.9732,7.088451 1.66501,15.607127 5.92641,27.77279 3.94141,11.252131 10.34217,16.152373 21.73016,17.546823"
       id="path21"
       sodipodi:nodetypes="cssc"
       inkscape:label="hair-bottom-right" />
    <path
       style="display:inline;fill:none;stroke:#000000;stroke-width:0.264583"
       d="m 62.063562,12.401732 c 0,0 28.877658,-17.4220553 47.970328,5.727799 19.09266,23.149852 8.91983,47.105176 8.91983,47.105176"
       id="path22"
       sodipodi:nodetypes="csc"
       inkscape:label="hair-top-right" />
    <path
       style="display:inline;fill:none;stroke:#000000;stroke-width:0.264583"
       d="m 21.255495,64.572353 c 0,0 -2.665362,-16.76683 0.480663,-24.317292 3.146026,-7.550465 10.067287,-17.932351 25.797417,-19.505363 15.730127,-1.573013 32.150092,-1.617926 41.09581,-0.01524 10.574846,1.894559 26.232625,5.908938 26.789865,19.201902 0.5406,12.896095 0.0126,26.621697 0.0126,26.621697"
       id="path4-4"
       sodipodi:nodetypes="cssssc"
       inkscape:label="head" />
    <path
       style="display:inline;fill:none;stroke:#000000;stroke-width:0.264583;stroke-opacity:1"
       d="m 53.279723,140.43713 c 0,0 1.771346,3.1334 2.862755,4.85332 1.09141,1.71992 1.96407,3.69687 4.055776,3.70328 2.621875,0.008 15.392874,0.52663 16.804844,0.37935 1.41197,-0.14729 2.145032,-0.70774 3.226893,-2.55886 1.081862,-1.85111 2.992116,-6.21478 2.992116,-6.21478"
       id="path6-6-7"
       sodipodi:nodetypes="czszzc"
       inkscape:label="young-menton" />
  </g>
</svg>
